<svg width="360" height="360" viewBox="0 0 360 360" fill="none" xmlns="http://www.w3.org/2000/svg">
  <path fill-rule="evenodd" clip-rule="evenodd" d="M254.872 9.40625C220.497 9.4033 187.42 22.5302 162.402 46.1032L146.048 61.5294C139.293 67.8883 132.84 74.5594 126.708 81.5208H63.536C59.7468 81.5226 56.0226 82.5054 52.7259 84.3736C49.4291 86.2417 46.6722 88.9315 44.7235 92.1813L10.7356 148.794C9.96362 150.081 9.51077 151.534 9.41486 153.032C9.31895 154.529 9.58277 156.028 10.1843 157.403C10.7858 158.778 11.7075 159.989 12.8725 160.935C14.0375 161.881 15.4119 162.535 16.881 162.841L74.209 174.919C74.6981 175.533 75.2374 176.123 75.8268 176.674L100.835 200.165L124.313 225.173C124.865 225.763 125.454 226.302 126.069 226.791L138.146 284.131C138.456 285.598 139.112 286.97 140.059 288.132C141.007 289.294 142.218 290.213 143.592 290.812C144.967 291.41 146.465 291.672 147.961 291.575C149.457 291.477 150.908 291.024 152.193 290.252L208.806 256.276C212.056 254.328 214.746 251.571 216.614 248.274C218.482 244.977 219.465 241.253 219.467 237.464V174.279C226.437 168.148 233.116 161.695 239.483 154.94L254.884 138.585C278.456 113.562 291.578 80.4801 291.569 46.1032V31.3416C291.565 25.5229 289.251 19.9435 285.136 15.8302C281.02 11.7169 275.439 9.40625 269.621 9.40625H254.859H254.872ZM200.667 189.53C196.49 192.64 192.239 195.637 187.899 198.535L145.345 226.904L153.849 267.326L199.149 240.148C199.612 239.869 199.995 239.476 200.261 239.005C200.526 238.535 200.666 238.004 200.667 237.464V189.53ZM74.0961 155.667L102.465 113.088C105.35 108.749 108.36 104.497 111.458 100.333H63.536C62.9958 100.334 62.4649 100.474 61.9946 100.739C61.5244 101.005 61.1308 101.388 60.8521 101.851L33.6743 147.151L74.0961 155.667ZM175.307 59.7987C196.833 39.5143 225.294 28.2178 254.872 28.2188H269.633C270.465 28.2188 271.262 28.5491 271.85 29.1371C272.438 29.7251 272.769 30.5226 272.769 31.3542V46.1032C272.779 75.6876 261.487 104.158 241.201 125.693L225.8 142.034C211.289 157.439 195.073 171.144 177.464 182.883L136.228 210.374L114.367 187.072C114.23 186.925 114.088 186.783 113.941 186.645L90.626 164.772L118.13 123.51C129.863 105.916 143.559 89.7127 158.953 75.2124L175.307 59.7861V59.7987ZM219.479 100.333C219.479 105.323 217.497 110.108 213.969 113.636C210.441 117.164 205.656 119.146 200.667 119.146C195.677 119.146 190.892 117.164 187.364 113.636C183.836 110.108 181.854 105.323 181.854 100.333C181.854 95.3439 183.836 90.5589 187.364 87.0309C190.892 83.5029 195.677 81.5208 200.667 81.5208C205.656 81.5208 210.441 83.5029 213.969 87.0309C217.497 90.5589 219.479 95.3439 219.479 100.333ZM81.5208 263.375C92.8083 252.088 92.8083 230.767 81.5208 219.479C70.2333 208.192 48.9124 208.192 37.6249 219.479C22.462 234.642 19.5022 268.404 18.9378 278.964C18.9101 279.378 18.9712 279.793 19.117 280.182C19.2629 280.57 19.4902 280.923 19.7835 281.216C20.0769 281.51 20.4297 281.737 20.8181 281.883C21.2065 282.029 21.6216 282.09 22.0356 282.062C32.5957 281.498 66.3579 278.538 81.5208 263.375Z" fill="#DDB7F4" fill-opacity="0.13"/>
</svg>