<svg width="373" height="373" viewBox="0 0 373 373" fill="none" xmlns="http://www.w3.org/2000/svg">
  <path d="M99.4667 237.062V109.828H252.811L269.182 93.25H82.8889V237.062H99.4667Z" fill="#DDB7F4" fill-opacity="0.13"/>
  <path d="M62.1667 72.5278H310.833V238.306H331.556V67.3472C331.556 63.2253 329.918 59.2722 327.003 56.3576C324.089 53.443 320.136 51.8055 316.014 51.8055H56.9861C52.8642 51.8055 48.9111 53.443 45.9965 56.3576C43.0819 59.2722 41.4445 63.2253 41.4445 67.3472V238.306H62.1667V72.5278Z" fill="#DDB7F4" fill-opacity="0.13"/>
  <path d="M10.3611 259.028V294.256C10.3611 301.4 13.1993 308.252 18.2513 313.304C23.3033 318.356 30.1553 321.194 37.3 321.194H335.078C342.223 321.194 349.075 318.356 354.127 313.304C359.179 308.252 362.017 301.4 362.017 294.256V259.028H10.3611ZM341.917 294.256C341.917 295.904 341.262 297.486 340.096 298.651C338.93 299.817 337.349 300.472 335.7 300.472H36.8855C35.2368 300.472 33.6555 299.817 32.4897 298.651C31.3238 297.486 30.6689 295.904 30.6689 294.256V274.88H133.762C135.057 277.937 137.219 280.547 139.981 282.388C142.743 284.229 145.984 285.221 149.304 285.241H223.178C226.498 285.221 229.739 284.229 232.5 282.388C235.262 280.547 237.425 277.937 238.72 274.88H341.917V294.256Z" fill="#DDB7F4" fill-opacity="0.13"/>
</svg>
