<svg width="567" height="567" viewBox="0 0 567 567" fill="none" xmlns="http://www.w3.org/2000/svg">
  <path d="M261.719 0.342469C225.889 0.342469 196.375 29.8561 196.375 65.6862L196.723 62.1141L175.269 190.841L134.102 303.494C133.318 304.518 132.382 305.28 131.031 305.28H109.25V283.499H0.34375V566.655H109.25V501.311H194.763C230.572 501.311 262.83 483.952 283.5 456.986C304.192 483.952 336.428 501.311 372.237 501.311H457.75V566.655H566.656V283.499H457.75V305.28H435.969C434.597 305.28 433.682 304.518 432.919 303.494L391.731 190.841L370.276 62.1141L370.625 65.6862C370.625 29.8561 341.111 0.342469 305.281 0.342469C297.876 0.342469 290.296 1.78003 283.5 5.28681C276.733 1.93817 269.268 0.243605 261.719 0.342469ZM260.956 44.2535C261.392 47.39 261.719 54.5342 261.719 65.6862V401.945C258.866 417.618 250.599 431.791 238.361 441.99C226.124 452.189 210.693 457.766 194.763 457.749H109.25V348.842H131.031C148.13 348.842 164.052 339.564 172.459 324.665L173.33 323.053L217.481 201.906L239.938 67.4723V65.6862C239.938 53.7065 249.129 44.6673 260.956 44.2535ZM306.044 44.2535C317.871 44.6891 327.062 53.6848 327.062 65.6862V67.4723L349.519 201.906L393.691 323.053L394.541 324.687C398.7 332.011 404.724 338.104 412 342.346C419.277 346.589 427.546 348.83 435.969 348.842H457.75V457.749H372.237C356.303 457.765 340.87 452.185 328.633 441.981C316.395 431.778 308.13 417.6 305.281 401.923V65.6862C305.281 54.5342 305.63 47.39 306.044 44.2535ZM43.9062 327.061H65.6875V523.092H43.9062V327.061ZM501.312 327.061H523.094V523.092H501.312V327.061Z" fill="#DDB7F4" fill-opacity="0.1"/>
</svg>
