<svg class="options--bg-2" width="351" height="351" viewBox="0 0 351 351" fill="none" xmlns="http://www.w3.org/2000/svg">
  <path d="M43.875 65.8125V87.75H285.188V263.25H131.625V285.188H329.062V263.25H307.125V65.8125H43.875ZM87.7719 98.7188C76.146 98.7592 65.0074 103.394 56.7845 111.613C48.5616 119.832 43.9212 130.968 43.875 142.594C43.875 166.714 63.6626 186.469 87.7719 186.469C99.392 186.423 110.523 181.784 118.737 173.566C126.952 165.347 131.585 154.214 131.625 142.594C131.625 118.495 111.859 98.7188 87.7719 98.7188ZM153.562 109.688V131.625H208.406V109.688H153.562ZM230.344 109.688V131.625H263.25V109.688H230.344ZM87.7719 120.656C99.9911 120.656 109.688 130.342 109.688 142.594C109.688 154.879 100.002 164.531 87.7719 164.531C75.4869 164.531 65.8125 154.879 65.8125 142.594C65.8125 130.342 75.4979 120.656 87.7719 120.656ZM153.562 153.562V175.5H263.25V153.562H153.562ZM43.875 197.438V285.188H65.8125V219.375H98.7188V285.188H120.656V226.592L143.296 238.57C149.712 241.971 157.424 241.96 163.829 238.57V238.592L202.549 218.114L192.315 198.699L153.584 219.178L119.625 201.255C114.886 198.751 109.607 197.441 104.247 197.438H43.875Z" fill="#FFCC4D"/>
</svg>