<svg width="525" height="657" viewBox="0 0 525 657" fill="none" xmlns="http://www.w3.org/2000/svg">
  <path d="M379.435 296.397C413.694 276.055 442.084 247.165 461.823 212.555C481.562 177.945 491.975 138.802 492.042 98.9583V66.1667H524.833V0.583344H0.166748V66.1667H32.9584V98.9583C33.0249 138.802 43.4377 177.945 63.177 212.555C82.9164 247.165 111.306 276.055 145.565 296.397C157.173 303.218 164.125 314.268 164.125 325.909V331.091C164.125 342.699 157.173 353.717 145.565 360.603C111.306 380.945 82.9164 409.835 63.177 444.445C43.4377 479.055 33.0249 518.198 32.9584 558.042V590.833H0.166748V656.417H524.833V590.833H492.042V558.042C491.979 518.206 481.572 479.069 461.838 444.465C442.104 409.86 413.721 380.974 379.468 360.636C367.827 353.75 360.875 342.699 360.875 331.091V325.909C360.875 314.268 367.827 303.218 379.435 296.397ZM346.152 417.103C370.594 431.633 390.844 452.259 404.921 476.965C418.998 501.67 426.42 529.607 426.458 558.042V590.833H98.5417V558.042C98.5847 529.6 106.011 501.656 120.093 476.946C134.176 452.235 154.433 431.603 178.881 417.07C210.722 398.281 229.708 366.112 229.708 331.091V325.909C229.708 290.855 210.689 258.654 178.849 239.897C154.407 225.367 134.156 204.741 120.079 180.035C106.002 155.33 98.5806 127.393 98.5417 98.9583V66.1667H426.458V98.9583C426.458 156.672 395.7 210.647 346.152 239.897C314.311 258.654 295.292 290.855 295.292 325.909V331.091C295.292 366.112 314.278 398.281 346.152 417.103Z" fill="#DDB7F4" fill-opacity="0.06"/>
</svg>
