<svg width="141" height="177" viewBox="0 0 141 177" fill="none" xmlns="http://www.w3.org/2000/svg">
  <path d="M26.7188 79H18V21.2031L0.515625 27.625V19.75L25.3594 10.4219H26.7188V79Z" fill="#FFCC4D"/>
  <path d="M140.938 158H96.2188V151.766L119.844 125.516C123.344 121.547 125.75 118.328 127.062 115.859C128.406 113.359 129.078 110.781 129.078 108.125C129.078 104.562 128 101.641 125.844 99.3594C123.688 97.0781 120.812 95.9375 117.219 95.9375C112.906 95.9375 109.547 97.1719 107.141 99.6406C104.766 102.078 103.578 105.484 103.578 109.859H94.9062C94.9062 103.578 96.9219 98.5 100.953 94.625C105.016 90.75 110.438 88.8125 117.219 88.8125C123.562 88.8125 128.578 90.4844 132.266 93.8281C135.953 97.1406 137.797 101.562 137.797 107.094C137.797 113.812 133.516 121.812 124.953 131.094L106.672 150.922H140.938V158Z" fill="#DDB7F4" fill-opacity="0.5"/>
  <line x1="4.73739" y1="174.686" x2="126.737" y2="2.68582" stroke="#DDB7F4" stroke-opacity="0.5" stroke-width="8"/>
</svg>
