<svg width="145" height="177" viewBox="0 0 145 177" fill="none" xmlns="http://www.w3.org/2000/svg">
  <path d="M46.9375 79H2.21875V72.7656L25.8438 46.5156C29.3438 42.5469 31.75 39.3281 33.0625 36.8594C34.4062 34.3594 35.0781 31.7812 35.0781 29.125C35.0781 25.5625 34 22.6406 31.8438 20.3594C29.6875 18.0781 26.8125 16.9375 23.2188 16.9375C18.9062 16.9375 15.5469 18.1719 13.1406 20.6406C10.7656 23.0781 9.57812 26.4844 9.57812 30.8594H0.90625C0.90625 24.5781 2.92188 19.5 6.95312 15.625C11.0156 11.75 16.4375 9.8125 23.2188 9.8125C29.5625 9.8125 34.5781 11.4844 38.2656 14.8281C41.9531 18.1406 43.7969 22.5625 43.7969 28.0938C43.7969 34.8125 39.5156 42.8125 30.9531 52.0938L12.6719 71.9219H46.9375V79Z" fill="#FFCC4D"/>
  <path d="M144.938 158H100.219V151.766L123.844 125.516C127.344 121.547 129.75 118.328 131.062 115.859C132.406 113.359 133.078 110.781 133.078 108.125C133.078 104.562 132 101.641 129.844 99.3594C127.688 97.0781 124.812 95.9375 121.219 95.9375C116.906 95.9375 113.547 97.1719 111.141 99.6406C108.766 102.078 107.578 105.484 107.578 109.859H98.9062C98.9062 103.578 100.922 98.5 104.953 94.625C109.016 90.75 114.438 88.8125 121.219 88.8125C127.562 88.8125 132.578 90.4844 136.266 93.8281C139.953 97.1406 141.797 101.562 141.797 107.094C141.797 113.812 137.516 121.812 128.953 131.094L110.672 150.922H144.938V158Z" fill="#DDB7F4" fill-opacity="0.5"/>
  <line x1="8.73739" y1="174.686" x2="130.737" y2="2.68582" stroke="#DDB7F4" stroke-opacity="0.5" stroke-width="8"/>
</svg>
