<svg width="343" height="343" viewBox="0 0 343 343" fill="none" xmlns="http://www.w3.org/2000/svg">
<path d="M34.3 77.1923C34.3 65.8211 38.8172 54.9157 46.8578 46.8751C54.8984 38.8344 65.8038 34.3173 77.175 34.3173H231.525C242.896 34.3173 253.802 38.8344 261.842 46.8751C269.883 54.9157 274.4 65.8211 274.4 77.1923V115.111C268.545 115.551 262.776 116.779 257.25 118.764V102.9H51.45V231.525C51.45 238.348 54.1603 244.891 58.9847 249.715C63.809 254.54 70.3523 257.25 77.175 257.25H191.908L184.397 270.284C183.627 271.612 182.939 272.987 182.339 274.4H77.175C65.8038 274.4 54.8984 269.883 46.8578 261.842C38.8172 253.802 34.3 242.896 34.3 231.525V77.1751V77.1923ZM77.1578 51.4501C70.3351 51.4501 63.7919 54.1604 58.9675 58.9848C54.1431 63.8092 51.4328 70.3524 51.4328 77.1751V85.7501H257.233V77.1751C257.233 70.3524 254.523 63.8092 249.698 58.9848C244.874 54.1604 238.331 51.4501 231.508 51.4501H77.1578Z" fill="#FFCC4D"/>
<path d="M237.939 155.911C233.356 163.845 231.156 172.932 231.604 182.084C232.051 191.236 235.126 200.065 240.46 207.515L199.249 278.876C197.945 281.135 197.098 283.629 196.758 286.215C196.418 288.801 196.59 291.428 197.265 293.948C198.629 299.036 201.958 303.374 206.52 306.007C211.082 308.641 216.504 309.354 221.592 307.991C226.68 306.627 231.018 303.298 233.652 298.736L274.932 227.22C284.371 228.072 293.849 226.091 302.157 221.53C310.465 216.969 317.226 210.036 321.575 201.615C325.924 193.195 327.665 183.669 326.575 174.254C325.486 164.84 321.615 155.964 315.457 148.759L292.991 187.69C290.811 191.192 287.356 193.71 283.355 194.712C279.354 195.714 275.12 195.122 271.548 193.061C267.975 191 265.343 187.63 264.208 183.665C263.073 179.699 263.524 175.448 265.465 171.809L287.931 132.878C278.24 131.078 268.229 132.327 259.276 136.451C250.323 140.576 242.869 147.375 237.939 155.911Z" fill="#FFCC4D"/>
<path d="M215.404 191.137C213.251 179.159 214.529 166.816 219.091 155.534L186.112 122.554C185.321 121.735 184.375 121.082 183.328 120.633C182.282 120.183 181.157 119.947 180.018 119.937C178.88 119.927 177.751 120.144 176.697 120.575C175.643 121.006 174.686 121.643 173.88 122.448C173.075 123.253 172.439 124.211 172.007 125.264C171.576 126.318 171.359 127.447 171.369 128.586C171.379 129.725 171.616 130.85 172.065 131.896C172.514 132.942 173.168 133.888 173.987 134.679L210.808 171.5L173.987 208.304C173.168 209.095 172.514 210.041 172.065 211.088C171.616 212.134 171.379 213.259 171.369 214.398C171.359 215.536 171.576 216.665 172.007 217.719C172.439 218.773 173.075 219.73 173.88 220.536C174.686 221.341 175.643 221.977 176.697 222.409C177.751 222.84 178.88 223.057 180.018 223.047C181.157 223.037 182.282 222.8 183.328 222.351C184.375 221.902 185.321 221.248 186.112 220.429L215.404 191.137Z" fill="#FFCC4D"/>
<path d="M143.237 134.679C144.799 133.062 145.663 130.896 145.644 128.647C145.624 126.399 144.722 124.248 143.132 122.658C141.543 121.069 139.392 120.167 137.143 120.147C134.895 120.128 132.729 120.992 131.112 122.554L88.2368 165.429C86.6292 167.037 85.7262 169.218 85.7262 171.491C85.7262 173.765 86.6292 175.946 88.2368 177.554L131.112 220.429C132.729 221.991 134.895 222.855 137.143 222.836C139.392 222.816 141.543 221.914 143.132 220.325C144.722 218.735 145.624 216.584 145.644 214.336C145.663 212.087 144.799 209.921 143.237 208.304L106.433 171.5L143.237 134.679Z" fill="#FFCC4D"/>
</svg>