<svg width="291" height="291" viewBox="0 0 291 291" fill="none" xmlns="http://www.w3.org/2000/svg">
<path d="M261.463 233.358C280.668 208.099 291.046 177.231 291 145.5C291 65.1452 225.855 0 145.5 0C65.1452 0 0 65.1452 0 145.5C0 225.855 65.1452 291 145.5 291C178.514 291 208.952 279.99 233.372 261.459L249.552 280.752C249.906 281.103 250.384 281.3 250.883 281.3C251.382 281.3 251.86 281.103 252.214 280.752L280.757 252.219C281.109 251.862 281.306 251.38 281.306 250.878C281.306 250.377 281.109 249.895 280.757 249.537L261.463 233.358V233.358ZM145.5 281.3C70.6208 281.3 9.7 220.379 9.7 145.5C9.7 70.6208 70.6208 9.7 145.5 9.7C220.384 9.7 281.3 70.6208 281.3 145.5C281.3 176.099 271.115 204.36 253.98 227.087L225.476 203.181C225.165 202.877 224.759 202.69 224.325 202.652C223.892 202.614 223.459 202.727 223.1 202.972V195.741C223.1 194.776 222.227 194 221.17 194H205.64C204.568 194 203.7 194.776 203.7 195.741V205.441C203.7 204.476 202.827 203.7 201.77 203.7H186.24C185.168 203.7 184.3 204.476 184.3 205.441V195.741C184.3 194.776 183.427 194 182.37 194H166.84C165.768 194 164.9 194.776 164.9 195.741V205.441C164.9 204.476 164.027 203.7 162.97 203.7H147.44C146.368 203.7 145.5 204.476 145.5 205.441V195.741C145.5 194.776 144.627 194 143.565 194H128.04C126.968 194 126.1 194.776 126.1 195.741V205.441C126.1 204.476 125.227 203.7 124.165 203.7H108.64C107.568 203.7 106.7 204.476 106.7 205.441V195.741C106.7 194.776 105.827 194 104.765 194H89.24C88.1681 194 87.3 194.776 87.3 195.741V205.441C87.3 204.476 86.427 203.7 85.3648 203.7H69.84C68.7681 203.7 67.9 204.476 67.9 205.441V231.054C67.9 232.024 68.773 232.8 69.84 232.8H85.3648C86.427 232.8 87.3 232.024 87.3 231.059V221.359C87.3 222.324 88.1681 223.1 89.24 223.1H104.765C105.827 223.1 106.7 222.324 106.7 221.359V231.059C106.7 232.024 107.568 232.8 108.64 232.8H124.165C125.227 232.8 126.1 232.024 126.1 231.059V221.359C126.1 222.324 126.968 223.1 128.04 223.1H143.565C144.627 223.1 145.5 222.324 145.5 221.359V231.059C145.5 232.024 146.368 232.8 147.44 232.8H162.97C164.027 232.8 164.9 232.024 164.9 231.059V221.359C164.9 222.324 165.773 223.1 166.84 223.1H182.365C183.427 223.1 184.3 222.324 184.3 221.359V231.059C184.3 232.024 185.173 232.8 186.24 232.8H201.765C202.827 232.8 203.7 232.024 203.7 231.059V226.092L227.096 253.985C203.6 271.738 174.948 281.329 145.5 281.3V281.3ZM203.889 222.082L203.7 222.266V221.354C203.7 221.621 203.778 221.858 203.889 222.082V222.082ZM270.339 252.636L252.627 270.32C252.475 270.477 252.292 270.603 252.091 270.689C251.889 270.774 251.672 270.819 251.453 270.819C251.234 270.819 251.017 270.774 250.815 270.689C250.614 270.603 250.431 270.477 250.279 270.32L238.79 257.132C245.438 251.575 251.578 245.436 257.137 238.79L270.344 250.275C270.652 250.591 270.824 251.015 270.823 251.457C270.822 251.898 270.648 252.322 270.339 252.636Z" fill="#391343"/>
</svg>
